<svg xmlns="http://www.w3.org/2000/svg" xml:space="preserve" width="192" height="192" data-version="2">
    <path fill="#6e81b9" d="M66.59 36.18h16.94v107.8H66.59Z" paint-order="stroke"/>
    <rect width="16.94" height="107.8" x="-8.47" y="-53.9" fill="none" rx="0" ry="0" transform="translate(75.56 90.58)"/>
    <path fill="#6e81b9" d="M102.62 145.52q-12.32 0-18.63-7.01-6.32-7-6.32-20.09v-6.16h16.02v7.39q0 10.47 8.78 10.47 4.31 0 6.54-2.54 2.24-2.54 2.24-8.24 0-6.78-3.08-11.94-3.08-5.15-11.4-12.39Q86.3 85.77 82.14 78.3q-4.16-7.47-4.16-16.86 0-12.79 6.47-19.79 6.47-7.01 18.79-7.01 12.16 0 18.4 7.01 6.24 7 6.24 20.09v4.47h-16.02v-5.54q0-5.55-2.15-8.09-2.16-2.54-6.32-2.54-8.47 0-8.47 10.32 0 5.85 3.16 10.93t11.47 12.32q10.63 9.24 14.63 16.79 4.01 7.54 4.01 17.71 0 13.24-6.55 20.33-6.54 7.08-19.02 7.08" paint-order="stroke"/>
    <rect width="50.52" height="110.88" x="-25.26" y="-55.44" fill="none" rx="0" ry="0" transform="translate(103.43 90.58)"/>
</svg>
