<svg xmlns="http://www.w3.org/2000/svg" version="1.1" xmlns:xlink="http://www.w3.org/1999/xlink" width="2000" height="605" viewBox="0 0 2000 605"><svg xml:space="preserve" width="2000" height="605" data-version="2" data-id="lg_u5kRJBtfj9Rg8kvFB4" viewBox="0 0 607 605" x="0" y="0"><rect width="100%" height="100%" fill="transparent"></rect><path fill="#6e81b9" d="M5.773 533.953h9.878v62.86H5.773Z"></path><rect width="7.37" height="46.9" x="-3.69" y="-23.45" fill="none" rx="0" ry="0" transform="translate(11.38 566.05)scale(1.3403)"></rect><path fill="#6e81b9" d="M27.955 533.953h12.384l9.61 37.636h.188v-37.636h8.792v62.86H48.783l-11.848-45.878h-.188v45.878h-8.792Z"></path><rect width="23.11" height="46.9" x="-11.55" y="-23.45" fill="none" rx="0" ry="0" transform="translate(44.11 566.05)scale(1.3403)"></rect><path fill="#6e81b9" d="M68.633 533.953h9.972l6.46 48.76h.174l6.474-48.76h9.074l-9.53 62.86H78.149Z"></path><rect width="23.99" height="46.9" x="-11.99" y="-23.45" fill="none" rx="0" ry="0" transform="translate(85.38 566.05)scale(1.3403)"></rect><path fill="#6e81b9" d="M110.477 533.953h26.94v8.98h-17.062v16.62h13.564v8.98h-13.564v19.3h17.062v8.98h-26.94Z"></path><rect width="20.1" height="46.9" x="-10.05" y="-23.45" fill="none" rx="0" ry="0" transform="translate(124.62 566.05)scale(1.3403)"></rect><path fill="#6e81b9" d="M148.019 533.953h12.384l9.61 37.636h.188v-37.636h8.792v62.86h-10.146l-11.848-45.878h-.188v45.878h-8.792Z"></path><rect width="23.11" height="46.9" x="-11.55" y="-23.45" fill="none" rx="0" ry="0" transform="translate(164.18 566.05)scale(1.3403)"></rect><path fill="#6e81b9" d="M199.017 542.933h-10.32v-8.98h30.532v8.98h-10.334v53.88h-9.878Z"></path><rect width="22.78" height="46.9" x="-11.39" y="-23.45" fill="none" rx="0" ry="0" transform="translate(204.63 566.05)scale(1.3403)"></rect><path fill="#6e81b9" d="M242.845 597.711q-7.278 0-11.138-4.128-3.86-4.128-3.86-11.674v-33.052q0-7.532 3.86-11.674 3.86-4.128 11.138-4.128 7.278 0 11.138 4.128 3.86 4.142 3.86 11.674v33.052q0 7.546-3.86 11.674-3.86 4.128-11.138 4.128m0-8.98q5.12 0 5.12-6.192V548.24q0-6.206-5.12-6.206t-5.12 6.206v34.298q0 6.192 5.12 6.192"></path><rect width="22.38" height="48.24" x="-11.19" y="-24.12" fill="none" rx="0" ry="0" transform="translate(243.51 566.05)scale(1.3403)"></rect><path fill="#6e81b9" d="M269.423 533.953h14.636q7.64 0 11.138 3.552t3.498 10.91v3.86q0 9.784-6.46 12.398v.174q3.592 1.072 5.08 4.396 1.474 3.324 1.474 8.9v11.044q0 2.694.174 4.356.188 1.662.898 3.27H289.81q-.536-1.528-.724-2.868-.174-1.354-.174-4.852v-11.5q0-4.302-1.394-6.004-1.394-1.716-4.798-1.716h-3.42v26.94h-9.878Zm13.47 26.94q2.962 0 4.45-1.528 1.474-1.528 1.474-5.12v-4.838q0-3.418-1.206-4.946-1.22-1.528-3.82-1.528h-4.49v17.96Z"></path><rect width="22.71" height="46.9" x="-11.36" y="-23.45" fill="none" rx="0" ry="0" transform="translate(285.31 566.05)scale(1.3403)"></rect><path fill="#6e81b9" d="m318.183 570.06-11.942-36.107h10.508l6.742 23.08h.174l6.728-23.08h9.61l-11.942 36.108v26.752h-9.878Z"></path><rect width="25.19" height="46.9" x="-12.6" y="-23.45" fill="none" rx="0" ry="0" transform="translate(323.8 566.05)scale(1.3403)"></rect><path fill="#6e81b9" d="M381.58 597.711q-7.185 0-10.857-4.088-3.686-4.074-3.686-11.714v-3.592h9.342v4.316q0 6.098 5.12 6.098 2.506 0 3.82-1.474 1.3-1.488 1.3-4.812 0-3.954-1.796-6.956t-6.648-7.224q-6.112-5.388-8.538-9.744t-2.426-9.838q0-7.452 3.78-11.54 3.766-4.088 10.95-4.088 7.104 0 10.736 4.088t3.632 11.714v2.614h-9.342v-3.23q0-3.244-1.246-4.718-1.26-1.488-3.686-1.488-4.946 0-4.946 6.018 0 3.418 1.85 6.38 1.836 2.962 6.688 7.184 6.192 5.388 8.524 9.784 2.346 4.396 2.346 10.334 0 7.72-3.82 11.848t-11.098 4.128"></path><rect width="21.98" height="48.24" x="-10.99" y="-24.12" fill="none" rx="0" ry="0" transform="translate(382.44 566.05)scale(1.3403)"></rect><path fill="#6e81b9" d="m415.623 570.06-11.942-36.107h10.508l6.728 23.08h.174l6.742-23.08h9.61l-11.942 36.108v26.752h-9.878Z"></path><rect width="25.19" height="46.9" x="-12.6" y="-23.45" fill="none" rx="0" ry="0" transform="translate(421.23 566.05)scale(1.3403)"></rect><path fill="#6e81b9" d="M458.271 597.711q-7.184 0-10.856-4.088-3.686-4.074-3.686-11.714v-3.592h9.342v4.316q0 6.098 5.12 6.098 2.506 0 3.806-1.474 1.3-1.488 1.3-4.812 0-3.954-1.796-6.956t-6.634-7.224q-6.112-5.388-8.538-9.744t-2.426-9.838q0-7.452 3.78-11.54 3.766-4.088 10.95-4.088 7.09 0 10.736 4.088 3.632 4.088 3.632 11.714v2.614h-9.342v-3.23q0-3.244-1.26-4.718-1.246-1.488-3.672-1.488-4.946 0-4.946 6.018 0 3.418 1.85 6.38 1.836 2.962 6.688 7.184 6.192 5.388 8.524 9.784 2.332 4.396 2.332 10.334 0 7.72-3.806 11.848-3.82 4.128-11.098 4.128"></path><rect width="21.97" height="48.24" x="-10.98" y="-24.12" fill="none" rx="0" ry="0" transform="translate(459.12 566.05)scale(1.3403)"></rect><path fill="#6e81b9" d="M491.497 542.933h-10.32v-8.98h30.532v8.98h-10.334v53.88h-9.878Z"></path><rect width="22.78" height="46.9" x="-11.39" y="-23.45" fill="none" rx="0" ry="0" transform="translate(497.11 566.05)scale(1.3403)"></rect><path fill="#6e81b9" d="M521.4 533.953h26.94v8.98h-17.063v16.62h13.564v8.98h-13.564v19.3h17.062v8.98H521.4Z"></path><rect width="20.1" height="46.9" x="-10.05" y="-23.45" fill="none" rx="0" ry="0" transform="translate(535.54 566.05)scale(1.3403)"></rect><path fill="#6e81b9" d="M558.941 533.953h14.1l6.286 44.994h.174l6.286-44.994h14.1v62.86h-9.341v-47.594h-.175l-7.184 47.594h-8.256l-7.184-47.594h-.188v47.594h-8.618Z"></path><rect width="30.55" height="46.9" x="-15.28" y="-23.45" fill="none" rx="0" ry="0" transform="translate(580.08 566.05)scale(1.3403)"></rect><circle r="158.38" fill="none" stroke="#6e81b9" stroke-width="5" transform="translate(303.14 249.57)scale(1.5144)"></circle><path fill="#b9a66e" d="M261.752 142.829h8.714v17.428h-8.714zm91.5 0h8.714v17.428h-8.715zm-91.5 113.284h8.714v17.429h-8.714z"></path><path fill="#b9a66e" d="M418.609 125.4c-2.614 0-4.357 1.743-4.357 4.357v91.5h-34.857c2.614 0 4.357-1.743 4.357-4.358v-69.713c0-2.614-1.743-4.357-4.357-4.357h-8.714v26.142h-26.143V142.83h-39.214v78.428h-8.714V142.83h-17.428v26.142h-26.143V142.83h-30.5c-2.614 0-4.357 1.743-4.357 4.357V216.9c0 2.614 1.743 4.357 4.357 4.357h-34.856v-91.5c0-2.614-1.743-4.357-4.358-4.357s-4.357 1.743-4.357 4.357v235.284c0 2.614 1.743 4.357 4.357 4.357s4.358-1.743 4.358-4.357v-21.786h226.569v21.786c0 2.614 1.743 4.357 4.357 4.357s4.357-1.743 4.357-4.357V129.758c0-2.615-1.743-4.358-4.357-4.358m-39.214 209.141c2.614 0 4.357-1.743 4.357-4.357V260.47c0-2.614-1.743-4.357-4.357-4.357h-8.714v26.143h-26.143v-26.143h-39.214v78.428h-8.714v-78.428h-17.428v26.143h-26.143v-26.143h-30.5c-2.614 0-4.357 1.743-4.357 4.358v69.713c0 2.614 1.743 4.357 4.357 4.357h-34.856v-104.57h226.569v104.57z"></path><path fill="#b9a66e" d="M353.251 256.113h8.715v17.429h-8.715z"></path></svg></svg>